<?xml version="1.0" encoding="UTF-8" standalone="no"?>
<!-- Created with Inkscape (http://www.inkscape.org/) -->
<svg
   xmlns:dc="http://purl.org/dc/elements/1.1/"
   xmlns:cc="http://web.resource.org/cc/"
   xmlns:rdf="http://www.w3.org/1999/02/22-rdf-syntax-ns#"
   xmlns:svg="http://www.w3.org/2000/svg"
   xmlns="http://www.w3.org/2000/svg"
   xmlns:sodipodi="http://sodipodi.sourceforge.net/DTD/sodipodi-0.dtd"
   xmlns:inkscape="http://www.inkscape.org/namespaces/inkscape"
   width="100"
   height="100"
   id="svg2"
   sodipodi:version="0.32"
   inkscape:version="0.45.1"
   version="1.0"
   sodipodi:docname="conglomerate.svg"
   inkscape:output_extension="org.inkscape.output.svg.inkscape">
  <defs
     id="defs4">
    <filter
       inkscape:collect="always"
       id="filter4419">
      <feGaussianBlur
         inkscape:collect="always"
         stdDeviation="1.11"
         id="feGaussianBlur4421" />
    </filter>
  </defs>
  <sodipodi:namedview
     id="base"
     pagecolor="#ffffff"
     bordercolor="#666666"
     borderopacity="1.0"
     gridtolerance="10000"
     guidetolerance="10"
     objecttolerance="10"
     inkscape:pageopacity="0"
     inkscape:pageshadow="2"
     inkscape:zoom="5.54"
     inkscape:cx="50"
     inkscape:cy="53.704279"
     inkscape:document-units="px"
     inkscape:current-layer="layer2"
     showgrid="true"
     inkscape:window-width="1026"
     inkscape:window-height="774"
     inkscape:window-x="8"
     inkscape:window-y="29"
     inkscape:grid-points="true"
     width="100px"
     height="100px" />
  <metadata
     id="metadata7">
    <rdf:RDF>
      <cc:Work
         rdf:about="">
        <dc:format>image/svg+xml</dc:format>
        <dc:type
           rdf:resource="http://purl.org/dc/dcmitype/StillImage" />
      </cc:Work>
    </rdf:RDF>
  </metadata>
  <g
     inkscape:groupmode="layer"
     id="layer2"
     inkscape:label="Shadow">
    <path
       sodipodi:nodetypes="ccccccccccccccccc"
       id="path4335"
       d="M 21,19 L 35,5 L 41,5 L 47,11 L 53,11 L 59,5 L 65,5 L 79,19 L 79,83 L 67,95 L 61,95 L 53,87 L 47,87 L 39,95 L 33,95 L 21,83 L 21,19 z "
       style="fill:#000000;fill-opacity:1;fill-rule:evenodd;stroke:none;stroke-width:1px;stroke-linecap:butt;stroke-linejoin:miter;stroke-opacity:1;filter:url(#filter4419)" />
  </g>
  <g
     inkscape:label="Layer 1"
     inkscape:groupmode="layer"
     id="layer1"
     transform="translate(-325,-482.36218)">
    <g
       id="g4329"
       transform="translate(5,5)">
      <path
         sodipodi:nodetypes="ccccccccccccccccc"
         id="path2256"
         d="M 341,496.36218 L 355,482.36218 L 361,482.36218 L 367,488.36218 L 373,488.36218 L 379,482.36218 L 385,482.36218 L 399,496.36218 L 399,560.36218 L 387,572.36218 L 381,572.36218 L 373,564.36218 L 367,564.36218 L 359,572.36218 L 353,572.36218 L 341,560.36218 L 341,496.36218 z "
         style="fill:#ffffff;fill-opacity:1;fill-rule:evenodd;stroke:none;stroke-width:1px;stroke-linecap:butt;stroke-linejoin:miter;stroke-opacity:1" />
      <path
         sodipodi:nodetypes="cccccccccccccccccccccccccccccccccccccccccccccccccc"
         id="path2236"
         d="M 355,529.36218 L 368.00769,516.33757 L 368,558.36218 L 355.98342,570.37231 L 354.97612,570.348 L 355,529.36218 z M 371.94455,558.36948 L 371.97612,516.33757 L 385,529.36218 L 385,570.36218 L 384,570.36218 L 371.94455,558.36948 z M 345,517.36218 L 356.99656,505.3277 L 366.00187,514.3584 L 352,528.36218 L 352,556.36218 L 345,563.36218 L 345,517.36218 z M 388,556.36218 L 388,528.36218 L 374,514.36218 L 383,505.36218 L 395,517.36218 L 395,563.36218 L 388,556.36218 z M 345,493.36218 L 355,503.36218 L 345,513.36218 L 345,493.36218 z M 358.97328,503.37208 L 368.00769,494.33768 L 367.93687,512.33785 L 358.97328,503.37208 z M 372,494.36218 L 381,503.36218 L 372,512.36218 L 372,494.36218 z M 385,503.36218 L 395,493.36218 L 395,513.36218 L 385,503.36218 z M 357,483.36218 L 366,492.36218 L 357,501.36218 L 357,483.36218 z M 374,492.36218 L 383,483.36218 L 383,501.36218 L 374,492.36218 z "
         style="opacity:1;fill:#c03600;fill-opacity:1" />
    </g>
  </g>
</svg>
