/* XPM */
static char * conglomerate_icon_xpm[] = {
"31 32 3 1",
" 	c None",
".	c #FFFFFF",
"+	c #C03500",
"                               ",
"           +..   ..+           ",
"          .++.. ..++.          ",
"         ..+++...+++..         ",
"        ...++++.++++...        ",
"       .+..+++...+++..+.       ",
"      ..++.++.+.+.++.++..      ",
"      ..++++.++.++.++++..      ",
"      ..+++.+++.+++.+++..      ",
"      ..++..+++.+++..++..      ",
"      ..+.++.++.++.++.+..      ",
"      ...++++.+.+.++++...      ",
"      ..++++++...++++++..      ",
"      ..+++++.+.+.+++++..      ",
"      ..++++.++.++.++++..      ",
"      ..+++.+++.+++.+++..      ",
"      ..++.++++.++++.++..      ",
"      ..++.++++.++++.++..      ",
"      ..++.++++.++++.++..      ",
"      ..++.++++.++++.++..      ",
"      ..++.++++.++++.++..      ",
"      ..++.++++.++++.++..      ",
"      ..++.++++.++++.++..      ",
"      ..++.++++.++++.++..      ",
"      ..++.++++.++++.++..      ",
"      ..++.++++.++++.++..      ",
"      ..++.++++.++++.++..      ",
"      ..+..+++...+++..+..      ",
"       ....++.....++....       ",
"        ...+..   ..+...        ",
"         ....     ....         ",
"          ..       ..          "};
