/* XPM */
static char *conglomerate_icon[] = {
/* columns rows colors chars-per-pixel */
"32 32 139 2",
"   c #000000010001",
".  c #0175018E0198",
"X  c #0217020F020B",
"o  c #038B047504D1",
"O  c #07A107BC07C6",
"+  c #07B00839086F",
"@  c #0910090B0908",
"#  c #0943095B0965",
"$  c #09F00A240A39",
"%  c #206C20F22127",
"&  c #281A290A2968",
"*  c #34CA35CD3633",
"=  c #3626361E361B",
"-  c #364136733686",
";  c #4443455145B3",
":  c #4E9E4A12484A",
">  c #4EEF4F2D4F45",
",  c #4F104F954FC9",
"<  c #4F49504A50AE",
"1  c #4F4C505650BE",
"2  c #509B509B509B",
"3  c #511D51DA5224",
"4  c #7C1973586FEB",
"5  c #738D7290722D",
"6  c #78DD783577F4",
"7  c #7FF6802F8046",
"8  c #807F81B3822B",
"9  c #BEDB30290000",
"0  c #BF2231200000",
"q  c #BFA132A20000",
"w  c #BFC8331E0000",
"e  c #C00433DD0000",
"r  c #C03934890000",
"t  c #C08435770000",
"y  c #C0C3363F0005",
"u  c #C150380303B1",
"i  c #C1AA391F03B1",
"p  c #C17E389404BD",
"a  c #C1A7391705DA",
"s  c #C18938B806CF",
"d  c #C1B4393F0606",
"f  c #C1E639E106AA",
"g  c #C2053A4406DE",
"h  c #C21F3A96076D",
"j  c #C2BC3C9D0A2E",
"k  c #C2DA3CEC09FE",
"l  c #C5E544511341",
"z  c #C694472016E8",
"x  c #C63B47391721",
"c  c #C6C549691A27",
"v  c #C6F94A0E1A85",
"b  c #C7224A9319D5",
"n  c #C75F4B241C79",
"m  c #C7774B891C79",
"M  c #C81D4D801D87",
"N  c #C7EC4D181E54",
"B  c #C8134D601F86",
"V  c #CAD0565029C2",
"C  c #CEE061AE37BD",
"Z  c #CF9664A13BAD",
"A  c #CF8C656C3C66",
"S  c #CF8865703D87",
"D  c #D04867C43ED7",
"F  c #D073684E403F",
"G  c #D0AB690040F0",
"H  c #D0F669EF419E",
"J  c #D0DE69A2430B",
"K  c #D1516B11430B",
"L  c #D3826DC34643",
"P  c #D38D72314C84",
"I  c #D6537B0A58C9",
"U  c #D99780D55E1B",
"Y  c #DB9381D65EB9",
"T  c #DEC89606798E",
"R  c #DEF1968A7A4B",
"E  c #DF1A970C7ADC",
"W  c #DF4F97B47BC3",
"Q  c #DFB298BF7D0E",
"!  c #E05C9B107FF2",
"~  c #871F885788D2",
"^  c #8B878C718CCD",
"/  c #8BD88D7F8E24",
"(  c #AE84A22D9D59",
")  c #E0EA9CD4822F",
"_  c #E2ECA33E8A4C",
"`  c #E675AE8498A0",
"'  c #E6BDB5B5A286",
"]  c #E6AEB7CEA567",
"[  c #E929B724A42A",
"{  c #E91AB6F4A4C3",
"}  c #E974B813A4C1",
"|  c #E93FBA56A7EA",
" . c #EAD6BC7CAA4F",
".. c #EB2CBD8DABB4",
"X. c #EB75BE75ACD3",
"o. c #EBCDBF8FAE31",
"O. c #EC40C101B141",
"+. c #EC8BC1EEB141",
"@. c #ED3BC424B406",
"#. c #EDCEC5F4B65D",
"$. c #EF72CAF5BC9D",
"%. c #EFCECC56BE6F",
"&. c #F01ACD4ABFA0",
"*. c #F03BCDB4C022",
"=. c #D7B9CB90C6CE",
"-. c #DD66CCC1C63D",
";. c #E43ED221CB0A",
":. c #EDDED21CC73C",
">. c #E146D5A4D116",
",. c #ED90DC8DD64E",
"<. c #F198D186C4E7",
"1. c #F1BBD249C5FA",
"2. c #F1C1D28DC731",
"3. c #F257D46CC8B1",
"4. c #F376D484C8B9",
"5. c #F29CD54AC9BE",
"6. c #F1D0DB7FD2B6",
"7. c #F423DF77D754",
"8. c #F652E130D8EB",
"9. c #F744E425DCA5",
"0. c #F588E47FDE53",
"q. c #F5FEE5F7DFB1",
"w. c #F634E6A5E09C",
"e. c #F7F9E666DF86",
"r. c #E674E670E66F",
"t. c #E74FE939E9F3",
"y. c #F6BEF236F071",
"u. c #F997F172EE42",
"i. c #FC65F3F9F0AE",
"p. c #F4C6F4F1F502",
"a. c #F55EF712F7BD",
"s. c #F8B1F900F91D",
"d. c #FD15F6B4F436",
"f. c #FC00F925F806",
"g. c #FDFFF9ABF7FA",
"h. c #FE5AFA21F87B",
"j. c #FF54FDDCFD30",
"k. c gray100",
"l. c None",
/* pixels */
"l.l.l.l.l.l.l.l.l.l.l.l.l.l.l.l.l.l.l.l.l.l.l.l.l.l.l.l.l.l.l.l.",
"l.l.l.l.l.l.l.l.l.l.  % & $ l.l.l.l.$ & %   l.l.l.l.l.l.l.l.l.l.",
"l.l.l.l.l.l.l.l.l.l.3 =.;.~ $ l.l.$ ~ ;.=.3 l.l.l.l.l.l.l.l.l.l.",
"l.l.l.l.l.l.l.l.  3 t.5.L 6./ * * / 6.L 5.t.3   l.l.l.l.l.l.l.l.",
"l.l.l.l.l.l.l.l.3 r.j.5.h C 7.a.a.7.C k 4.j.r.3 l.l.l.l.l.l.l.l.",
"l.l.l.l.l.l.l.: >.j.j.5.k n %.i.i.%.m h 5.j.j.>.: l.l.l.l.l.l.l.",
"l.l.l.l.l.l.* -.U 8.j.1.V o.E  . .W o.V 3.j.8.U -.- l.l.l.l.l.l.",
"l.l.l.l.l.l.1 q.m A e.e.#.W p { ' p W #.e.0.A M q.3 l.l.l.l.l.l.",
"l.l.l.l.l.l.1 q.M 0 I j.{ p t } } t h { j.I 9 M q.1 l.l.l.l.l.l.",
"l.l.l.l.l.l.1 q.m m  .X.%.P q { } 0 P $.X. .m m q.1 l.l.l.l.l.l.",
"l.l.l.l.l.l.1 0.A X.W p G *.P ' { P *.G p W X.A 0.1 l.l.l.l.l.l.",
"l.l.l.l.l.l., u.1.E p t q G &.9.9.*.G q t p E 1.u., l.l.l.l.l.l.",
"l.l.l.l.l.l., f.Q p t t t v $.d.d.$.x q t t p Q f., l.l.l.l.l.l.",
"l.l.l.l.l.l.1 q.B t t t v  .) X.X.)  .v t t t B q.1 l.l.l.l.l.l.",
"l.l.l.l.l.l.1 q.N t t v  .) h { { p )  .v t t M q.1 l.l.l.l.l.l.",
"l.l.l.l.l.l.1 q.M 0 v  .) p t { } t h )  .v q M q.1 l.l.l.l.l.l.",
"l.l.l.l.l.l.1 w.M t ` _ h t t } } t t h _ ` i M e.1 l.l.l.l.l.l.",
"l.l.l.l.l.l.1 w.M i @.G t t t } } t t 0 G +.i m e.1 l.l.l.l.l.l.",
"l.l.l.l.l.l.1 0.M i @.G q t t } } t t t K +.i M 0.1 l.l.l.l.l.l.",
"l.l.l.l.l.l.3 0.M i @.G t t t } } t t q K +.i M e.1 l.l.l.l.l.l.",
"l.l.l.l.l.l.1 w.M i @.G q t t } } t t q G @.i M e.1 l.l.l.l.l.l.",
"l.l.l.l.l.l.1 0.M i @.G q t t } } t t t G @.i m e.1 l.l.l.l.l.l.",
"l.l.l.l.l.l.3 0.M i O.G t t t } } t t q G @.i m w.1 l.l.l.l.l.l.",
"l.l.l.l.l.l.1 0.M i @.G q t t { } t i q K @.i m w.1 l.l.l.l.l.l.",
"l.l.l.l.l.l.1 0.M t @.G t t t { } t t q G o.i N w.1 l.l.l.l.l.l.",
"l.l.l.l.l.l.1 w.m M 4.G t t q { } t t q G 5.N v w.1 l.l.l.l.l.l.",
"l.l.l.l.l.l.; ,.A #.f.F q q x <.1.z t q G f.@.Z ,.; l.l.l.l.l.l.",
"l.l.l.l.l.l.+ 4 :.j.f.A q x  .a.a.} z q G f.j.:.4 O l.l.l.l.l.l.",
"l.l.l.l.l.l.l.+ 7 a.h.A l { / - * / ] l Z h.f.~ O l.l.l.l.l.l.l.",
"l.l.l.l.l.l.l.l.o ~ y.Y ' ~ $ l.l.$ ~ ' Y p.7 o l.l.l.l.l.l.l.l.",
"l.l.l.l.l.l.l.l.l.$ 5 ( 6 $ l.l.l.l.$ 6 ( 5 + l.l.l.l.l.l.l.l.l.",
"l.l.l.l.l.l.l.l.l.l.  o   l.l.l.l.l.l.  o   l.l.l.l.l.l.l.l.l.l."
};
