/* XPM */
static char * conglomerate_icon_xpm[] = {
"32 32 54 1",
" 	c None",
".	c #000000",
"+	c #202021",
"@	c #282929",
"#	c #090A0A",
"$	c #515152",
"%	c #C03500",
"&	c #E4D2CB",
"*	c #878888",
"=	c #E7E9E9",
"-	c #F1DBD2",
";	c #8B8D8E",
">	c #343536",
",	c #E6E6E6",
"'	c #FFFDFD",
")	c #C23A07",
"!	c #F5F7F7",
"~	c #C23C09",
"{	c #DF977A",
"]	c #4E4A48",
"^	c #E1D5D1",
"/	c #F7E4DC",
"(	c #FDF6F4",
"_	c #F6E1D8",
":	c #363636",
"<	c #4F5050",
"[	c #F7E6DF",
"}	c #F5E4DE",
"|	c #BF3100",
"1	c #EBBEAC",
"2	c #4F4F4F",
"3	c #C13804",
"4	c #F0CDC0",
"5	c #EFCABC",
"6	c #EABCAA",
"7	c #E09C82",
"8	c #444545",
"9	c #EDC5B6",
"0	c #070808",
"a	c #7C736F",
"b	c #EDD2C7",
"c	c #E9B8A4",
"d	c #070707",
"e	c #7F8080",
"f	c #E9B6A4",
"g	c #E6B7A5",
"h	c #FCF9F8",
"i	c #030404",
"j	c #F6F2F0",
"k	c #E6B5A2",
"l	c #F4F4F5",
"m	c #737272",
"n	c #AEA29D",
"o	c #787877",
"                                ",
"          .+@#    #@+.          ",
"          $%&*#  #*&%$          ",
"        .$=%%-;>>;-%%=$.        ",
"        $,'%)%%!!%%~%',$        ",
"  {    ]^''%%%%//%%)%''^]       ",
"      >(%_'%%/%//%/%%'_%(:      ",
"      <(%%[%/%%//%%/%}%%($      ",
"      <(%|%'%%%//%%%/%%%(<      ",
"      <(%%/1%%%//%%%%/%%(<      ",
"      <(%/%%%%%//%%%%%/%(<      ",
"      2(/%3%%%%//4%%%%%/(2      ",
"      2(%3%%%%5//5%%%%%%/2      ",
"      <(%%%%%67//76%%%%%/<      ",
"      <(%%%%6%%//%%6%%%%(<      ",
"      <(%%%6%%%//%%%6%%%(<      ",
"      <(%%(%%%%//%%%%(%%(<      ",
"      <(%%(%%%%//%%%%(%%(<      ",
"      <(%%(%%%%//%%%%(%%(<      ",
"      $(%%(%%%%//%%%%(%%(<      ",
"      <(%%(%%%%//%%%%(%%(<      ",
"      <(%%(%%%%//%%%%(%%(<      ",
"      $(%%(%%%%//%%%%(%%(<      ",
" {    <(%%(%%%%//%%%%(%%(<      ",
"      <(%%(%%%%//%%%%(%%(<      ",
"      <(%%(%%%%//%%%%(%%(<      ",
"      8(%9(%%%%//%%%%(%%(8      ",
"      0ab'(%%%6!!c%%%('bad      ",
"       0e!(%%f;:>;g%%(h*d       ",
"        i*j%k*#  #*k%lei        ",
" %       #mno#    #onm0         ",
"          .i.      .i.          "};
