/* XPM */
static char * ilogo100_xpm[] = {
"100 100 5 1",
" 	c None",
".	c #FFFFFF",
"+	c #CB3800",
"@	c #C33600",
"#	c #C03600",
"                                                                                                    ",
"                                                                                                    ",
"                                                                                                    ",
"                                                                                                    ",
"                                                                                                    ",
"                                                                                                    ",
"                                   ......                  ......                                   ",
"                                  ........                ........                                  ",
"                                 ....++....              ....++....                                 ",
"                                .....@@+....            ....+@@.....                                ",
"                               ......@#@+....          ....+@#@......                               ",
"                              .......@##@+....        ....+@##@.......                              ",
"                             ........@###@+..............+@###@........                             ",
"                            .........@####@+............+@####@.........                            ",
"                           ..........@#####@+..........+@#####@..........                           ",
"                          ...........@######@+........+@######@...........                          ",
"                         ............@######@+........+@######@............                         ",
"                        .............@#####@+..........+@#####@.............                        ",
"                       ..++..........@####@+...++..++...+@####@..........++..                       ",
"                      ...@@+.........@###@+...+@@..@@+...+####@.........+@@...                      ",
"                     ....@#@+........@##@+...+@#@..@#@+...+@##@........+@#@....                     ",
"                     ....@##@+.......@#@+...+@##@..@##@+...+##@.......+@##@....                     ",
"                     ....@###@+......@@+...+####@..@###@+...+@@......+@###@....                     ",
"                     ....@####@+.....++...+@####@..@####@+...@+.....+@####@....                     ",
"                     ....@#####@+........+@#####@..@#####@+........+@#####@....                     ",
"                     ....@######@+......+@######@..@######@+......+@######@....                     ",
"                     ....@#######@+....+@#######@..@########+....+@#######@....                     ",
"                     ....@#######@+....+@#######@..@#######@+....+@#######@....                     ",
"                     ....@#######+......+@######@..@######@+......+@######@....                     ",
"                     ....@######+........+@#####@..@#####@+........+@#####@....                     ",
"                     ....@####@+...+@@+...+@####@..@####@+...+@@+...+@####@....                     ",
"                     ....@###@+...+@##@+...+@###@..@###@+...+@##@+...+@###@....                     ",
"                     ....@##@+...+@####@+...+@##@..@##@+...+@####@+...+@##@....                     ",
"                     ....@#@+...+@######@+...+##@..@#@+...+@######@+...+@#@....                     ",
"                     ....@#+...+@########@+...+@@..@@+...+#########@+...+@@....                     ",
"                     ....++...+@##########@+...++..++...+@##########@+...++....                     ",
"                     ........+#############@+..........+@############@+........                     ",
"                     .......+@##############@..........@##############@+.......                     ",
"                     ......+@###############@..........@###############@+......                     ",
"                     .....+@################+..........+@###############@+.....                     ",
"                     ....+################@+...++..++...+@################+....                     ",
"                     ....@###############@+...+@@..@@+...+@###############@....                     ",
"                     ....@##############@+...+@#@..@#@+...+@##############@....                     ",
"                     ....@#############@+...+@##@..@##@+...+@#############@....                     ",
"                     ....@############@+...+@###@..@###@+...+@############@....                     ",
"                     ....@###########@+...+@####@..@####@+...+@###########@....                     ",
"                     ....@##########@+...+@#####@..@#####@+...+@##########@....                     ",
"                     ....@#########@+...+@######@..@######@+...+@#########@....                     ",
"                     ....@########@+...+@#######@..@#######@+...+@########@....                     ",
"                     ....@#######@+...+@########@..@########@+...+@#######@....                     ",
"                     ....@######@+...+@#########@..@#########@+...+@######@....                     ",
"                     ....@######@...+@##########@..@##########@+...@######@....                     ",
"                     ....@######@..+@###########@..@###########@+..@######@....                     ",
"                     ....@######@..@############@..@############@..@######@....                     ",
"                     ....@######@..@############@..@############@..@######@....                     ",
"                     ....@######@..@############@..@############@..@######@....                     ",
"                     ....@######@..@############@..@############@..@######@....                     ",
"                     ....@######@..@############@..@############@..@######@....                     ",
"                     ....@######@..@############@..@############@..@######@....                     ",
"                     ....@######@..@############@..@############@..@######@....                     ",
"                     ....@######@..@############@..@############@..@######@....                     ",
"                     ....@######@..@############@..@############@..@######@....                     ",
"                     ....@######@..@############@..@############@..@######@....                     ",
"                     ....@######@..@############@..@############@..@######@....                     ",
"                     ....@######@..@############@..@############@..@######@....                     ",
"                     ....@######@..@############@..@############@..@######@....                     ",
"                     ....@######@..@############@..@############@..@######@....                     ",
"                     ....@######@..@############@..@############@..@######@....                     ",
"                     ....@######@..@############@..@############@..@######@....                     ",
"                     ....@######@..@############@..@############@..@######@....                     ",
"                     ....@######@..@############@..@############@..@######@....                     ",
"                     ....@######@..@############@..@############@..@######@....                     ",
"                     ....@######@..@############@..@############@..@######@....                     ",
"                     ....@######@..@############@..@############@..@######@....                     ",
"                     ....@######@..@############@..@############@..@######@....                     ",
"                     ....@######@..@############@..@############@..@######@....                     ",
"                     ....@######@..@############@..@############@..@######@....                     ",
"                     ....@######@..@############@..@############@..@######@....                     ",
"                     ....@######@..@############@..@############@..@######@....                     ",
"                     ....@#####@+..@############@..@############@..@@#####@....                     ",
"                     ....@####@+...@############@..+############@...+@####@....                     ",
"                     ....@###@+....@###########@+..+@###########@....+@###@....                     ",
"                     ....@##@+.....@##########@+....+@##########@.....+@##@....                     ",
"                     ....@#@+......@#########@+......+@#########@......+@#@....                     ",
"                      ...@@+.......@########@+........+@########@.......+@@...                      ",
"                       ..++........@#######@+..........+@#######@........++..                       ",
"                        ...........@######@+............+@######@...........                        ",
"                         ..........@#####@+..............+@#####@..........                         ",
"                          .........@####@+....        ....+@####@.........                          ",
"                           ........@###@+....          ....+@###@........                           ",
"                            .......@##@+....            ....+@##@.......                            ",
"                             ......@#@+....              ....+@#@......                             ",
"                              .....@@+....                ....+@@.....                              ",
"                               ....++....                  ....++....                               ",
"                                ........                    ........                                ",
"                                 ......                      ......                                 ",
"                                                                                                    ",
"                                                                                                    ",
"                                                                                                    ",
"                                                                                                    "};
