/* XPM */
static char * ilogo100_xpm[] = {
"100 100 3 1",
" 	c None",
".	c #FFFFFF",
"#	c #C03600",
"                                                                                                    ",
"                                                                                                    ",
"                                                                                                    ",
"                                                                                                    ",
"                                                                                                    ",
"                                                                                                    ",
"                                   ......                  ......                                   ",
"                                  ........                ........                                  ",
"                                 ....#.....              .....#....                                 ",
"                                .....##.....            .....##.....                                ",
"                               ......###.....          .....###......                               ",
"                              .......####.....        .....####.......                              ",
"                             ........#####................#####........                             ",
"                            .........######..............######.........                            ",
"                           ..........#######............#######..........                           ",
"                          ...........########..........########...........                          ",
"                         ............########..........########............                         ",
"                        .............#######............#######.............                        ",
"                       ..#...........######....#....#....######...........#..                       ",
"                      ...##..........#####....##....##....#####..........##...                      ",
"                     ....###.........####....###....###....####.........###....                     ",
"                     ....####........###....####....####....###........####....                     ",
"                     ....#####.......##....#####....#####....##.......#####....                     ",
"                     ....######......#....######....######....#......######....                     ",
"                     ....#######.........#######....#######.........#######....                     ",
"                     ....########.......########....########.......########....                     ",
"                     ....#########.....#########....#########.....#########....                     ",
"                     ....#########.....#########....#########.....#########....                     ",
"                     ....########.......########....########.......########....                     ",
"                     ....#######.........#######....#######.........#######....                     ",
"                     ....######....###....######....######....###....######....                     ",
"                     ....#####....#####....#####....#####....#####....#####....                     ",
"                     ....####....#######....####....####....#######....####....                     ",
"                     ....###....#########....###....###....#########....###....                     ",
"                     ....##....###########....##....##....###########....##....                     ",
"                     ....#....#############....#....#....#############....#....                     ",
"                     ........###############............###############........                     ",
"                     .......#################..........#################.......                     ",
"                     ......##################..........##################......                     ",
"                     .....##################............##################.....                     ",
"                     ....##################....#....#....##################....                     ",
"                     ....#################....##....##....#################....                     ",
"                     ....################....###....###....################....                     ",
"                     ....###############....####....####....###############....                     ",
"                     ....##############....#####....#####....##############....                     ",
"                     ....#############....######....######....#############....                     ",
"                     ....############....#######....#######....############....                     ",
"                     ....###########....########....########....###########....                     ",
"                     ....##########....#########....#########....##########....                     ",
"                     ....#########....##########....##########....#########....                     ",
"                     ....########....###########....###########....########....                     ",
"                     ....#######....############....############....#######....                     ",
"                     ....#######...#############....#############...#######....                     ",
"                     ....#######...#############....#############...#######....                     ",
"                     ....#######...#############....#############...#######....                     ",
"                     ....#######...#############....#############...#######....                     ",
"                     ....#######...#############....#############...#######....                     ",
"                     ....#######...#############....#############...#######....                     ",
"                     ....#######...#############....#############...#######....                     ",
"                     ....#######...#############....#############...#######....                     ",
"                     ....#######...#############....#############...#######....                     ",
"                     ....#######...#############....#############...#######....                     ",
"                     ....#######...#############....#############...#######....                     ",
"                     ....#######...#############....#############...#######....                     ",
"                     ....#######...#############....#############...#######....                     ",
"                     ....#######...#############....#############...#######....                     ",
"                     ....#######...#############....#############...#######....                     ",
"                     ....#######...#############....#############...#######....                     ",
"                     ....#######...#############....#############...#######....                     ",
"                     ....#######...#############....#############...#######....                     ",
"                     ....#######...#############....#############...#######....                     ",
"                     ....#######...#############....#############...#######....                     ",
"                     ....#######...#############....#############...#######....                     ",
"                     ....#######...#############....#############...#######....                     ",
"                     ....#######...#############....#############...#######....                     ",
"                     ....#######...#############....#############...#######....                     ",
"                     ....#######...#############....#############...#######....                     ",
"                     ....#######...#############....#############...#######....                     ",
"                     ....#######...#############....#############...#######....                     ",
"                     ....#######...#############....#############...#######....                     ",
"                     ....######....#############....#############....######....                     ",
"                     ....#####.....#############....#############.....#####....                     ",
"                     ....####......#############....#############......####....                     ",
"                     ....###.......############......############.......###....                     ",
"                      ...##........###########........###########........##...                      ",
"                       ..#.........##########..........##########.........#..                       ",
"                        ...........#########............#########...........                        ",
"                         ..........########..............########..........                         ",
"                          .........#######....        ....#######.........                          ",
"                           ........######....          ....######........                           ",
"                            .......#####....            ....#####.......                            ",
"                             ......####....              ....####......                             ",
"                              .....###....                ....###.....                              ",
"                               ....##....                  ....##....                               ",
"                                ........                    ........                                ",
"                                 ......                      ......                                 ",
"                                                                                                    ",
"                                                                                                    ",
"                                                                                                    ",
"                                                                                                    "};
