/* XPM */
static char *conglomerate_icon[] = {
/* columns rows colors chars-per-pixel */
"32 32 12 1",
"  c black",
". c #191919",
"X c gray20",
"o c #666667",
"O c gray50",
"+ c red",
"@ c yellow",
"# c gray60",
"$ c #b2b2b2",
"% c gray80",
"& c gray90",
"* c white",
/* pixels */
"********************************",
"********************************",
"********%$$@@%&&*&@#+$&*********",
"*******$@+@++@+&@+@+@+@+%*******",
"*******%+@+@+@@++@@@+@+@&*******",
"******&&$@@+@@+@+@+@@+@&********",
"******&**%+@+@@+@+@+#@&&&*******",
"******&%***&&#+@+@$*&*&&$*******",
"*****&X %****&%%%%*****# O******",
"*****O   %****&*&*****#   %*****",
"****&     &*****&****#     %****",
"****%    O****&&&&&**&.    X****",
"****$    $*&*#    &***o    .****",
"****$    $***#    &***o    X****",
"****#    $***#    %***o    X****",
"****$    %***#    &***o    .****",
"****$    $***#    &***o    X****",
"****$    $*&*#    &***o    .****",
"****$    $***#    &***o    X****",
"****$    %***#    %***o    X****",
"****$    $***#    %***o    X****",
"****$    $***#    &***o    X****",
"****$    $***#    &***o    .****",
"****$    $***#    &***o    X****",
"****$    $***#    %***o    X****",
"****$    $***#    &***o    .****",
"****$    $***#    &***o    X****",
"****$    $***#    &***o    X****",
"****&$%$$&***&$$$%****%$$$%*****",
"********************************",
"********************************",
"********************************"
};
